<?xml version="1.0" standalone="no"?>
<!DOCTYPE svg PUBLIC "-//W3C//DTD SVG 20010904//EN"
 "http://www.w3.org/TR/2001/REC-SVG-20010904/DTD/svg10.dtd">
<svg version="1.0" xmlns="http://www.w3.org/2000/svg"
 width="512.000000pt" height="512.000000pt" viewBox="0 0 512.000000 512.000000"
 preserveAspectRatio="xMidYMid meet">
<metadata>
Created by potrace 1.14, written by Peter Selinger 2001-2017
</metadata>
<g transform="translate(0.000000,512.000000) scale(0.100000,-0.100000)"
fill="#000000" stroke="none">
<path d="M0 4478 l1 -643 30 35 c17 19 42 53 56 75 14 22 36 53 49 68 13 15
28 45 34 67 7 25 22 47 41 61 38 27 111 104 123 130 5 10 18 22 30 25 11 4 55
30 96 58 91 63 137 83 152 68 16 -16 -20 -56 -74 -80 -58 -26 -196 -130 -235
-177 -15 -19 -52 -63 -82 -98 -29 -34 -62 -80 -72 -102 -47 -99 -102 -192
-124 -210 l-25 -21 0 -347 c0 -291 2 -347 14 -347 9 0 12 -7 9 -19 -3 -10 0
-22 6 -25 6 -4 11 0 11 8 0 22 32 24 54 2 24 -24 76 -16 117 18 17 14 36 26
43 26 7 0 23 12 37 26 13 14 47 41 75 60 51 34 52 34 167 34 63 0 122 -3 131
-6 14 -5 16 -36 16 -244 l0 -237 157 -9 c120 -7 158 -12 161 -23 3 -10 0 -12
-12 -8 -10 4 -79 7 -154 7 -98 0 -133 3 -122 11 11 7 -18 10 -100 8 -264 -6
-428 0 -433 15 -3 8 -7 56 -8 105 -1 50 -6 91 -11 91 -4 0 -6 -11 -2 -24 5
-20 0 -27 -25 -41 -17 -8 -31 -23 -31 -33 0 -9 -4 -23 -9 -30 -6 -11 -12 -10
-26 4 -13 13 -21 15 -34 7 -23 -15 -30 -270 -6 -279 8 -3 13 -9 10 -14 -7 -12
88 -5 112 8 15 8 29 9 47 2 35 -13 248 -22 266 -10 9 6 19 5 28 -3 11 -9 18
-6 33 13 l19 25 -1 -55 c-1 -30 -3 -47 -6 -37 -4 15 -23 17 -201 18 -180 1
-315 -1 -318 -4 -1 -1 -4 -117 -7 -257 -5 -206 -4 -252 7 -238 9 12 29 17 77
18 87 2 88 2 56 -15 -15 -7 -46 -16 -70 -18 -23 -2 -15 -3 18 -1 80 4 85 5 85
21 0 18 17 16 24 -3 3 -8 -1 -22 -9 -30 -8 -9 -15 -19 -15 -23 0 -5 -20 -6
-44 -4 -25 3 -56 3 -70 -1 -31 -8 -35 -36 -5 -36 11 0 17 5 14 10 -7 11 62 14
88 4 16 -6 11 -54 -5 -54 -6 0 -8 -8 -6 -18 5 -16 -1 -19 -45 -20 -28 0 -56 3
-63 9 -8 7 -14 2 -18 -16 -4 -14 -11 -23 -16 -20 -6 4 -10 -20 -10 -62 l0 -68
473 0 c259 -1 512 -4 560 -9 l88 -8 -3 -31 c-2 -23 -8 -31 -18 -28 -30 7
-1027 14 -1063 7 -65 -12 -48 -37 51 -75 120 -47 225 -100 372 -189 256 -154
280 -173 247 -200 -9 -8 -24 -4 -57 17 -219 136 -341 202 -360 196 -16 -5 -19
-10 -11 -18 6 -6 11 -15 11 -19 0 -11 -43 11 -52 26 -4 8 -48 12 -125 13
l-118 1 95 -7 c122 -8 155 -26 147 -79 -4 -19 -12 -39 -18 -43 -14 -8 -147
-29 -189 -29 -17 0 -30 -4 -30 -10 0 -20 165 -5 232 21 30 12 44 37 28 53 -17
17 -11 30 7 15 9 -8 27 -36 39 -64 22 -46 24 -63 24 -211 0 -89 -3 -195 -6
-237 l-7 -77 -158 0 -159 0 0 -275 0 -275 65 0 65 0 0 -35 c0 -47 16 -44 23 4
6 47 24 73 86 124 54 44 220 127 324 161 70 24 294 62 304 53 14 -15 -39 -62
-111 -98 -82 -42 -103 -55 -95 -63 2 -2 53 20 112 49 60 29 125 56 145 60 63
10 63 10 56 133 -9 144 -23 172 -89 172 -37 0 -52 -6 -82 -33 -44 -39 -56 -40
-198 -12 -91 18 -140 35 -100 34 11 0 54 -7 95 -16 41 -8 100 -16 130 -17 48
-1 56 2 67 24 14 28 35 38 81 39 42 1 102 -24 102 -42 0 -8 7 -20 14 -27 10
-8 12 -18 7 -33 -4 -12 -6 -50 -3 -84 2 -34 2 -78 -2 -96 -5 -29 -12 -36 -49
-46 -23 -7 -67 -24 -97 -38 -30 -14 -68 -31 -85 -38 l-30 -14 30 6 c17 3 64
19 105 35 78 31 326 98 334 91 2 -3 2 -28 -1 -57 -4 -39 -2 -55 10 -64 11 -10
101 -13 363 -15 l349 -2 3 -27 3 -28 -109 0 c-60 0 -224 -3 -364 -7 l-256 -6
-6 44 c-4 24 -9 66 -12 92 -7 60 -21 52 -66 -42 -35 -74 -99 -166 -137 -196
-13 -11 -47 -28 -75 -37 l-51 -17 62 0 61 -1 45 51 c25 28 58 76 73 106 16 31
37 58 46 60 9 3 14 11 11 19 -3 8 0 14 7 14 27 0 -19 -90 -111 -222 l-20 -28
471 0 c384 0 470 2 470 13 0 31 -137 706 -153 757 -3 8 -8 27 -11 42 l-6 26
523 2 c287 0 657 5 822 9 164 5 305 7 312 4 18 -7 16 -41 -11 -173 -14 -63
-32 -151 -40 -195 -9 -44 -21 -98 -26 -120 -5 -22 -11 -52 -15 -67 -3 -17 -12
-28 -22 -28 -13 0 -15 8 -9 55 5 49 41 215 91 429 11 48 13 72 6 79 -6 6 -11
9 -12 7 0 -3 -2 -19 -5 -37 -2 -18 -24 -117 -49 -220 -26 -103 -49 -216 -52
-250 l-6 -61 -56 -14 c-49 -11 -56 -16 -59 -39 -4 -35 22 -59 63 -59 30 0 33
-3 37 -34 2 -19 0 -32 -4 -30 -4 3 -8 -5 -7 -18 0 -13 3 -17 6 -11 8 21 22 15
16 -7 -4 -15 0 -20 16 -20 13 0 19 -5 15 -14 -6 -16 -44 -10 -44 7 0 7 -4 7
-12 -1 -7 -7 -22 -12 -34 -12 -13 0 -26 -5 -29 -10 -4 -7 75 -9 242 -8 189 2
248 6 248 15 0 12 -32 56 -67 94 -10 11 -14 19 -10 19 13 0 69 -63 86 -97 13
-26 23 -33 46 -33 26 0 36 9 28 25 -2 2 7 12 20 21 18 12 26 13 37 4 12 -10
21 -6 47 22 18 18 42 46 53 61 15 21 25 26 40 21 16 -7 8 -18 -61 -82 l-79
-74 48 5 c26 3 56 12 66 22 16 14 22 14 40 3 12 -7 21 -16 21 -20 0 -5 158 -8
350 -8 l350 0 0 40 0 40 105 0 c96 0 105 2 116 21 16 31 38 164 39 236 0 61 0
61 -32 68 -71 15 -176 120 -198 196 -42 144 59 318 211 364 35 11 85 19 112
18 l47 -1 0 132 0 133 -122 27 c-171 39 -237 53 -280 60 -29 5 -38 12 -38 26
0 12 7 20 18 20 29 0 172 -27 282 -54 152 -37 140 -43 140 73 l0 98 -64 7
c-35 3 -102 3 -148 0 -96 -8 -120 4 -66 32 27 14 51 16 155 10 l123 -7 0 141
c0 135 -1 145 -36 250 -20 61 -41 110 -46 110 -5 0 -6 5 -3 10 3 6 0 12 -7 15
-7 3 -159 6 -338 7 l-325 3 -3 215 c-3 234 1 288 22 271 8 -7 16 -7 22 -1 6 6
149 10 362 10 219 1 352 4 352 10 0 6 -9 10 -19 10 -30 0 -51 11 -51 26 0 8
-5 14 -10 14 -6 0 -10 -8 -8 -17 3 -17 -14 -20 -76 -14 -7 0 -20 15 -29 33
-18 38 -8 65 43 113 29 27 81 113 80 132 0 5 9 9 20 9 53 3 50 -63 50 1130 l0
1104 -567 0 c-494 -1 -564 -3 -536 -15 45 -19 75 -82 77 -159 0 -34 0 -124 -2
-201 -5 -200 -20 -142 -21 78 -1 205 -8 232 -70 271 l-41 26 -645 0 -644 0 5
-28 c4 -20 0 -33 -15 -46 -18 -16 -40 -20 -127 -23 -101 -3 -104 -2 -94 16 5
11 10 33 10 50 0 24 -4 31 -20 31 -13 0 -18 -5 -14 -15 4 -8 3 -26 0 -39 -5
-20 -12 -24 -41 -24 -24 0 -35 5 -35 14 0 10 7 13 23 9 27 -7 52 16 43 40 -9
24 -54 19 -59 -7 l-4 -23 -2 23 c-1 19 -6 22 -46 22 -43 0 -58 -11 -35 -25 6
-4 8 -15 5 -25 -3 -10 -1 -21 4 -25 7 -4 9 1 5 12 -5 17 -5 17 6 0 6 -9 8 -22
5 -28 -8 -11 -626 -6 -645 6 -5 3 -10 24 -10 46 0 32 -3 39 -20 39 -15 0 -20
-7 -20 -25 0 -22 -4 -25 -34 -25 -30 0 -35 4 -39 28 -2 15 -5 -64 -6 -175 -1
-136 -5 -203 -12 -203 -7 0 -9 63 -6 200 2 110 0 200 -3 200 -7 0 -19 -201
-22 -360 -2 -114 10 -109 -299 -110 -269 0 -305 5 -315 45 -2 11 -3 108 -2
215 l3 195 33 3 c18 2 32 -1 32 -7 0 -6 7 -11 15 -11 9 0 43 -18 76 -40 33
-22 66 -40 73 -40 6 0 17 -5 24 -12 8 -8 21 -9 49 0 21 6 48 9 59 6 12 -3 35
1 50 9 45 24 104 74 96 82 -4 4 7 4 24 1 22 -5 35 -2 44 9 11 13 6 15 -43 15
-39 0 -56 -4 -60 -15 -10 -25 -89 -76 -101 -66 -7 6 -28 6 -56 0 -49 -11 -56
-9 -147 48 l-52 33 -486 0 -485 0 0 -642z m2300 587 c0 -5 -5 -3 -10 5 -5 8
-10 20 -10 25 0 6 5 3 10 -5 5 -8 10 -19 10 -25z m1030 -462 c0 -275 -4 -462
-9 -454 -5 8 -9 207 -10 443 -1 384 2 478 15 478 2 0 4 -210 4 -467z m-722
360 c2 -18 -2 -41 -8 -53 -11 -20 -15 -20 -483 -18 l-472 3 -3 53 -3 52 483
-2 483 -3 3 -32z m1047 -75 c11 -6 26 -17 33 -25 7 -7 28 -13 45 -13 18 -1 42
-6 55 -13 l23 -13 -38 -50 c-21 -27 -44 -53 -51 -57 -6 -4 -21 -26 -32 -48
-11 -21 -25 -39 -30 -39 -6 0 -10 -6 -10 -14 0 -8 -8 -24 -19 -37 l-18 -23
-16 50 c-19 63 -55 163 -67 189 -27 58 -49 126 -44 139 5 12 18 10 77 -11 39
-13 81 -30 92 -35z m-683 -62 c86 -43 129 -98 154 -198 31 -119 -4 -251 -82
-312 -82 -65 -228 -83 -364 -45 -121 33 -182 77 -260 185 -46 64 -8 38 51 -36
54 -66 137 -111 251 -134 101 -21 132 -20 213 5 50 15 78 31 110 64 50 49 65
92 65 183 0 123 -50 211 -151 267 -47 25 -67 30 -149 33 -84 3 -103 1 -164
-22 -82 -31 -163 -83 -201 -128 -15 -18 -38 -40 -50 -48 -12 -8 -36 -27 -53
-42 -28 -23 -31 -30 -22 -52 9 -25 8 -26 -28 -26 -20 0 -48 9 -61 19 l-23 18
27 21 c29 23 51 29 40 12 -3 -5 -4 -10 -1 -10 12 0 120 81 192 143 73 63 133
100 209 126 17 6 77 9 135 8 93 -2 111 -5 162 -31z m-1480 -158 c-6 -6 -7 0
-4 19 5 21 7 23 10 9 2 -10 0 -22 -6 -28z m-6 -28 c14 -14 213 -28 253 -17 47
12 59 -3 30 -42 -27 -37 -43 -40 -35 -7 6 23 4 23 -82 30 -48 4 -106 9 -130
12 l-42 6 10 -26 c17 -47 10 -63 -9 -18 -9 23 -20 40 -23 36 -4 -3 -4 3 -1 15
6 23 14 26 29 11z m2702 -51 c63 -88 176 -323 207 -429 4 -14 13 -28 19 -32 9
-7 -153 -14 -191 -9 -7 1 -13 -3 -13 -10 0 -9 45 -10 178 -7 97 3 186 9 197
12 l20 7 -20 -16 c-99 -79 -181 -129 -211 -128 -42 1 -103 38 -115 70 -5 13
-13 21 -19 18 -5 -3 -10 -1 -10 4 0 6 -7 11 -15 11 -18 0 -21 50 -2 51 6 0 34
0 61 -1 l49 -2 -6 32 c-7 32 -67 184 -94 235 -9 17 -31 60 -50 97 -19 36 -40
68 -47 71 -10 4 -15 65 -7 85 6 14 34 -10 69 -59z m-1510 7 c-2 -30 -7 -42
-15 -39 -15 6 -17 33 -3 33 6 0 10 11 10 25 0 14 2 25 5 25 3 0 4 -20 3 -44z
m-1665 -10 c37 -24 89 -49 115 -54 26 -6 74 -16 107 -22 43 -9 67 -20 87 -42
15 -17 28 -34 28 -38 0 -4 -27 -36 -60 -70 -47 -48 -60 -58 -60 -42 0 18 40
76 63 93 17 12 -4 47 -39 64 -20 9 -63 21 -96 25 -58 9 -156 57 -218 109 -46
38 2 22 73 -23z m1617 34 c0 -5 -4 -10 -10 -10 -5 0 -10 5 -10 10 0 6 5 10 10
10 6 0 10 -4 10 -10z m-1740 -7 c-8 -3 -23 -12 -32 -21 -11 -9 -18 -11 -18 -4
0 13 29 32 50 31 13 -1 13 -1 0 -6z m85 -49 c56 -41 134 -74 194 -82 62 -9
111 -33 111 -55 0 -18 -55 -69 -64 -60 -4 4 -4 -1 0 -12 7 -18 6 -19 -10 -5
-10 8 -26 15 -37 17 -25 4 -51 -37 -45 -72 5 -25 -25 -98 -44 -110 -4 -3 -29
30 -56 73 -48 77 -140 205 -181 252 -27 30 -28 34 -7 54 19 19 26 20 43 4 11
-11 13 -10 8 4 -4 12 -2 15 7 12 8 -3 17 0 21 5 7 12 14 9 60 -25z m663 20
c65 -7 73 -15 47 -50 -21 -27 -18 -37 6 -24 17 9 23 8 36 -7 13 -16 14 -16 9
0 -3 11 0 17 9 17 8 0 15 -4 15 -9 0 -4 47 -57 105 -117 150 -155 215 -232
306 -364 66 -96 159 -259 159 -278 -1 -25 -55 41 -85 103 -39 82 -161 262
-225 335 -46 51 -26 19 60 -97 87 -120 142 -205 160 -251 7 -18 26 -51 41 -72
16 -22 29 -42 29 -45 0 -3 -13 -20 -29 -38 -16 -17 -38 -43 -48 -56 l-19 -24
-33 86 c-30 81 -105 229 -155 307 -89 140 -132 196 -211 279 -49 51 -107 107
-128 124 l-39 30 -46 -47 -45 -47 -12 28 c-29 70 -46 211 -24 197 4 -2 9 3 12
10 4 9 -1 17 -11 20 -9 3 -1 3 18 1 19 -2 63 -7 98 -11z m712 -19 c0 -8 -4
-15 -9 -15 -13 0 -22 16 -14 24 11 11 23 6 23 -9z m-1540 -36 c0 -5 31 -48 69
-97 69 -87 150 -215 177 -281 17 -40 15 -41 55 30 16 30 27 44 24 32 -13 -46
-57 -114 -73 -111 -8 2 -20 21 -27 43 -11 37 -71 147 -100 184 -7 9 -43 53
-79 99 -36 45 -66 92 -66 103 0 11 5 17 10 14 6 -3 10 -10 10 -16z m687 -51
c-3 -8 -6 -5 -6 6 -1 11 2 17 5 13 3 -3 4 -12 1 -19z m-707 -6 c0 -34 -24 -52
-80 -61 -30 -5 -58 -7 -62 -4 -21 12 -3 36 45 58 63 30 97 32 97 7z m951 -139
c139 -133 284 -330 363 -495 55 -114 105 -247 96 -253 -5 -3 -14 12 -21 32
-41 125 -164 345 -277 496 -79 105 -227 267 -244 267 -6 0 -19 -11 -30 -25
-31 -40 -41 -29 -12 15 15 22 31 40 35 40 5 0 45 -35 90 -77z m2336 -118 c-11
-33 -22 -45 -67 -67 l-54 -28 -302 0 c-167 0 -305 3 -307 8 -3 4 127 6 289 4
282 -3 295 -2 344 19 69 30 92 69 99 173 l6 81 3 -75 c2 -44 -3 -92 -11 -115z
m-2897 107 c17 21 19 21 24 6 16 -49 16 -50 1 -44 -8 3 -15 1 -15 -3 0 -5 4
-11 9 -13 8 -3 97 -79 190 -163 31 -28 74 -66 95 -85 74 -66 399 -415 465
-499 36 -47 80 -100 98 -119 17 -18 30 -39 27 -46 -3 -7 2 -19 11 -26 8 -7 15
-17 15 -22 0 -12 -52 44 -102 111 -130 174 -471 532 -658 694 -58 49 -124 107
-146 128 -40 36 -61 78 -46 93 4 5 8 -2 10 -13 3 -21 3 -21 22 1z m161 3 c67
-35 286 -245 622 -595 62 -65 169 -195 186 -227 17 -33 26 -29 41 18 29 86
136 209 241 276 28 17 82 39 120 48 82 20 147 12 227 -28 26 -13 52 -22 59
-20 6 2 14 -4 18 -14 4 -10 29 -38 56 -62 l49 -44 52 32 c81 51 207 62 288 27
157 -69 327 -245 425 -439 37 -74 59 -131 64 -167 4 -31 17 -70 29 -88 54 -78
62 -91 62 -96 0 -3 20 -38 44 -78 128 -214 169 -298 160 -332 -3 -14 -10 -26
-16 -26 -5 0 -7 -4 -4 -9 7 -10 -608 -15 -648 -5 -24 6 -26 9 -20 43 7 38 45
112 104 201 38 57 92 141 126 196 59 96 81 130 103 156 l24 29 -46 93 c-96
196 -188 312 -328 417 -71 53 -143 73 -231 66 -65 -6 -158 -37 -158 -54 0 -4
9 -23 20 -41 40 -65 61 -145 67 -248 l6 -102 67 -4 c101 -8 193 -59 242 -136
44 -68 55 -127 38 -192 -23 -87 -116 -172 -229 -209 -67 -22 -177 -29 -166
-11 3 6 32 10 63 10 99 0 252 92 293 177 53 108 -2 248 -120 307 -28 14 -124
34 -180 38 l-35 3 3 66 c8 221 -127 433 -327 512 -95 38 -240 14 -323 -53 -21
-16 -41 -30 -45 -30 -20 0 -109 -114 -141 -180 -36 -73 -37 -78 -38 -200 l-2
-125 -94 -1 c-82 -1 -103 -5 -161 -32 -36 -16 -88 -50 -114 -73 -26 -24 -42
-35 -36 -23 18 35 95 98 142 118 72 29 74 31 89 79 8 26 19 47 24 47 5 0 6
-10 2 -22 -4 -13 -9 -35 -12 -50 -5 -26 -5 -26 53 -25 33 1 66 -2 74 -6 13 -6
15 9 14 108 l-2 115 -46 52 c-25 29 -67 78 -92 108 -46 55 -349 374 -479 505
-69 69 -201 181 -240 203 -30 17 2 14 36 -3z m218 -17 c5 -14 4 -30 -3 -40
-12 -19 -36 -24 -36 -8 0 6 6 9 13 8 8 -2 11 8 9 30 -2 37 5 42 17 10z m-170
-65 c97 -78 162 -141 397 -384 144 -149 364 -405 364 -424 0 -6 -16 -19 -36
-29 -36 -17 -37 -16 -60 5 -13 12 -24 27 -24 33 0 6 -16 29 -36 51 -20 22 -63
71 -97 109 -142 158 -185 211 -180 220 4 5 1 6 -5 2 -13 -8 -129 110 -124 126
1 5 -1 7 -6 4 -10 -6 -98 84 -94 97 1 4 -2 6 -7 3 -5 -4 -31 16 -58 44 -26 28
-73 71 -104 96 -36 29 -59 55 -62 72 -5 27 7 52 26 52 5 0 53 -35 106 -77z
m1828 -48 c-30 -27 -47 -32 -47 -15 0 6 15 17 33 25 44 20 46 18 14 -10z m56
-38 c5 -38 -29 -114 -55 -123 -10 -3 -18 -10 -18 -15 0 -10 -261 -269 -270
-269 -3 1 -18 11 -33 24 -28 22 -28 25 -17 66 9 32 33 66 93 130 45 48 89 96
97 107 20 27 109 83 133 83 10 0 16 4 12 9 -7 12 24 31 41 24 6 -2 14 -19 17
-36z m-148 -22 c-30 -24 -85 -34 -85 -15 0 6 8 10 18 10 9 1 33 9 52 20 45 24
53 16 15 -15z m-2162 -15 c5 -5 -7 -173 -19 -277 -3 -23 -10 -43 -17 -45 -7
-1 -129 -1 -272 2 -143 3 -216 7 -162 8 61 1 97 6 97 13 0 6 -22 10 -57 9 -32
-1 -73 -1 -90 -1 l-33 1 0 134 0 135 38 4 c34 3 33 4 -10 5 l-47 2 -4 -157 -3
-158 -2 162 -2 162 78 4 c112 5 499 3 505 -3z m4013 -191 c12 -9 14 -83 14
-406 0 -236 -4 -392 -9 -389 -5 4 -11 0 -14 -6 -5 -18 -273 -17 -304 0 -28 16
-29 14 -7 -134 20 -144 20 -243 -3 -321 -16 -59 -20 -63 -51 -69 -19 -4 -80
-3 -137 0 -97 7 -104 6 -114 -13 -7 -12 -11 -115 -11 -280 l0 -261 318 -2 317
-3 -250 -2 -250 -3 -80 -40 c-49 -25 -111 -46 -160 -56 -98 -18 -624 -34 -835
-25 l-145 6 0 33 0 33 415 3 c399 4 523 11 583 35 l27 11 0 140 0 140 -152 3
c-84 1 -382 2 -663 2 l-510 0 -55 26 c-99 46 -162 129 -179 239 -17 101 -17
100 29 100 l40 0 0 -57 c1 -97 44 -164 139 -214 36 -19 60 -20 313 -22 458 -3
1012 3 1026 11 12 8 -6 114 -57 322 -11 41 -24 132 -31 202 -10 112 -10 129 3
143 17 17 47 20 47 5 0 -13 37 -13 45 1 5 6 11 4 19 -7 18 -23 34 -10 28 22
l-5 27 -238 -7 c-224 -7 -238 -7 -247 11 -5 10 -6 29 -2 43 3 14 3 43 -1 65
-5 22 -8 185 -9 361 l0 322 23 5 c12 3 125 6 251 7 127 0 232 2 234 4 2 3 146
5 319 5 224 1 319 -2 329 -10z m-4688 -151 c-3 -7 -21 -16 -41 -20 -43 -9
-132 -52 -143 -69 -4 -7 17 1 47 18 96 54 94 55 95 -37 0 -44 -3 -80 -7 -80
-4 0 -48 14 -97 30 -50 17 -94 30 -98 30 -29 -1 140 -65 199 -75 30 -6 31 -5
27 71 -1 31 3 55 10 59 6 4 13 5 14 4 6 -8 -13 -152 -22 -161 -4 -4 -57 10
-118 33 -112 42 -159 68 -137 76 7 2 29 15 48 29 46 31 108 63 165 85 56 21
63 22 58 7z m272 -7 c0 -5 -11 -12 -25 -15 -28 -7 -25 -26 5 -26 10 0 20 -6
23 -12 3 -10 8 -10 18 -2 18 13 59 16 59 3 0 -6 160 -9 428 -9 l429 1 57 -25
c48 -22 57 -29 54 -48 l-3 -23 -487 0 c-267 0 -488 -2 -491 -5 -2 -3 2 -26 9
-52 10 -33 23 -52 44 -65 17 -9 30 -25 30 -35 0 -10 6 -21 13 -23 18 -6 1216
-11 1212 -5 -2 3 4 6 13 7 14 1 67 -56 59 -63 -1 -1 -295 -4 -652 -5 l-650 -3
-20 40 c-26 50 -52 80 -93 106 -30 18 -33 24 -30 62 l3 41 -133 3 -132 3 0 28
c0 58 4 61 104 61 55 0 86 4 77 9 -11 7 -10 11 5 21 16 10 16 11 2 6 -10 -3
-18 -1 -18 4 0 6 -9 10 -19 10 -11 0 -23 5 -26 10 -4 6 20 10 64 10 39 0 71
-4 71 -9z m68 2 c-10 -2 -15 -10 -11 -19 3 -9 -2 -14 -17 -14 -18 0 -20 3 -11
13 6 8 8 17 4 20 -3 4 7 6 23 6 16 -1 21 -3 12 -6z m1522 -387 c0 -3 -4 -8
-10 -11 -5 -3 -10 -1 -10 4 0 6 5 11 10 11 6 0 10 -2 10 -4z m-20 -111 c0 -8
-4 -15 -9 -15 -5 0 -11 7 -15 15 -3 9 0 15 9 15 8 0 15 -7 15 -15z m-1737 -44
c20 -34 24 -64 5 -38 -12 14 -22 10 -95 -38 -46 -30 -83 -52 -83 -49 0 3 -5 2
-10 -1 -8 -5 -8 -11 0 -20 8 -10 8 -15 -1 -21 -8 -5 -9 -3 -4 6 6 10 4 12 -11
6 -136 -56 -138 -55 -144 77 l-5 107 165 0 166 0 17 -29z m1335 -228 l-3 -28
-507 0 -508 0 0 28 0 27 511 0 510 0 -3 -27z m-19 -99 c49 -41 41 -57 -16 -33
-58 25 -131 22 -171 -8 -15 -11 -38 -41 -51 -66 -19 -38 -22 -55 -17 -92 13
-81 88 -145 173 -145 86 0 143 62 145 159 2 86 25 29 27 -67 1 -46 4 -89 7
-97 13 -32 -15 -40 -125 -35 -138 7 -186 28 -227 96 -65 111 -17 259 98 301
60 21 123 16 157 -13z m-40 -52 c46 -23 81 -70 62 -82 -9 -5 -19 -3 -28 6 -8
8 -32 14 -53 14 -29 0 -42 5 -50 19 -7 14 -6 21 3 24 7 3 5 6 -5 6 -18 1 -23
12 -11 24 11 12 46 7 82 -11z m221 -110 c54 -27 58 -27 320 -33 l265 -6 -280
1 -280 1 -58 27 c-31 15 -60 34 -63 42 -3 8 -12 12 -20 9 -8 -3 -14 -1 -14 3
0 5 -3 20 -7 34 -6 23 -4 22 37 -13 25 -21 69 -50 100 -65z m728 -39 c-10 -2
-26 -2 -35 0 -10 3 -2 5 17 5 19 0 27 -2 18 -5z m160 0 c-10 -2 -26 -2 -35 0
-10 3 -2 5 17 5 19 0 27 -2 18 -5z m166 -2 c8 -12 -66 -12 -84 0 -11 6 -1 9
32 9 26 0 49 -4 52 -9z m-314 -181 c0 -192 -6 -213 -65 -250 -30 -19 -47 -21
-122 -18 -85 3 -87 4 -94 31 l-7 27 96 0 c54 0 104 5 112 10 12 7 16 43 18
190 l3 180 30 0 29 0 0 -170z m-942 148 c22 -22 13 -46 -19 -57 -72 -25 -99
-3 -50 41 34 31 51 34 69 16z m-898 -28 c176 0 179 0 190 -22 11 -23 11 -23
-6 -3 l-17 20 8 -20 c4 -11 10 -26 13 -34 4 -10 1 -12 -9 -6 -11 7 -12 6 -3
-6 6 -8 12 -45 13 -83 1 -38 4 -72 6 -76 2 -3 19 -5 37 -4 18 1 39 -3 47 -9
11 -9 13 -9 8 0 -6 9 12 11 70 10 l78 -2 0 -283 0 -282 -255 -1 c-279 -1 -403
1 -407 5 -2 2 -3 180 -3 396 0 405 1 419 38 405 8 -3 94 -5 192 -5z m317 -39
c45 -33 79 -75 94 -120 8 -22 18 -31 37 -33 l27 -3 3 -317 2 -318 -357 0
c-196 0 -354 2 -352 5 3 2 147 5 320 5 173 1 326 4 342 7 l27 5 0 287 c0 157
-4 292 -9 299 -6 10 -39 14 -130 13 l-122 0 6 52 c5 45 13 115 14 140 2 18 61
4 98 -22z m1046 -109 c127 -56 187 -175 164 -323 -13 -93 -71 -170 -162 -218
-47 -25 -98 -30 -55 -6 29 17 22 19 -14 5 -14 -5 -26 -16 -26 -25 0 -20 -19
-19 -43 3 -11 9 -17 11 -13 5 5 -9 1 -13 -12 -13 -34 0 -82 22 -82 37 0 11 -3
13 -13 5 -9 -8 -22 -2 -50 24 -54 52 -90 102 -84 118 3 8 1 16 -4 18 -27 9
-37 141 -14 184 8 16 15 37 15 47 0 22 75 104 114 124 89 47 195 52 279 15z
m1757 -209 c0 -3 -11 -2 -25 1 -16 4 -25 2 -25 -5 0 -7 -2 -10 -5 -8 -2 3 -2
15 1 26 6 21 7 21 30 6 13 -8 24 -18 24 -20z m-3383 -3 c0 -18 -6 -30 -15 -32
-8 -2 -120 -2 -249 0 l-233 3 0 29 0 30 248 0 249 0 0 -30z m1183 16 c0 -3 -4
-16 -10 -31 l-10 -26 -200 2 -200 1 0 29 0 29 210 0 c116 0 210 -2 210 -4z
m1322 -49 c32 -14 80 -48 107 -75 95 -95 122 -215 80 -349 -19 -62 -32 -83
-79 -132 -67 -68 -103 -87 -196 -102 -89 -15 -159 -1 -240 47 -174 104 -215
356 -85 515 99 120 271 160 413 96z m854 -2 c18 -14 17 -15 -7 -6 -15 5 -30 7
-35 3 -4 -4 -4 -1 0 6 9 16 18 15 42 -3z m-16 -35 c0 -5 -9 -10 -20 -10 -11 0
-20 5 -20 10 0 6 9 10 20 10 11 0 20 -4 20 -10z m-2 -47 c2 -8 -6 -13 -22 -13
-25 0 -33 10 -19 24 10 10 36 3 41 -11z m-18 -45 c0 -13 -23 -5 -28 10 -2 7 2
10 12 6 9 -3 16 -11 16 -16z m-13 -34 c-3 -3 -12 -4 -19 -1 -8 3 -5 6 6 6 11
1 17 -2 13 -5z m-3295 -161 c2 -55 0 -96 -4 -90 -4 7 -7 66 -6 132 1 133 6
115 10 -42z m3292 131 c3 -7 -4 -16 -14 -19 -27 -9 -43 3 -28 19 16 16 36 16
42 0z m-14 -44 c0 -5 -9 -10 -20 -10 -11 0 -20 5 -20 10 0 6 9 10 20 10 11 0
20 -4 20 -10z m-2147 -156 l78 -81 52 10 c74 13 240 2 319 -23 104 -32 216
-116 279 -208 95 -141 132 -288 127 -512 l-3 -135 -36 -3 -36 -3 1 153 c1 155
-6 200 -46 323 -44 134 -199 290 -308 310 l-35 6 3 -113 c1 -62 6 -236 11
-387 5 -151 7 -280 4 -288 -3 -7 -11 -13 -18 -13 -9 0 -14 94 -19 407 -4 224
-9 409 -11 411 -2 2 -64 3 -137 3 l-134 -2 -35 43 c-18 24 -49 56 -68 73 -36
31 -92 90 -117 121 -13 18 -15 18 -40 -11 -14 -16 -50 -55 -78 -85 -28 -30
-55 -60 -59 -67 -4 -7 33 -51 97 -115 87 -86 106 -100 113 -86 11 23 132 148
144 148 17 0 9 -13 -48 -71 -78 -81 -97 -113 -95 -163 1 -46 -3 -40 -13 17 -5
31 -21 54 -83 114 -42 41 -96 89 -119 106 -48 34 -51 42 -23 57 19 10 138 144
174 196 l20 28 30 -40 c17 -21 66 -75 109 -120z m2116 34 c1 13 6 20 11 17 6
-3 10 -35 10 -71 0 -57 -2 -64 -20 -64 -18 0 -20 6 -19 73 1 51 3 65 9 47 8
-25 8 -25 9 -2z m1037 -38 c57 -32 177 -147 171 -163 -4 -14 -178 -139 -239
-172 l-48 -26 0 77 0 77 -187 -7 c-250 -10 -374 -29 -543 -87 -48 -16 -51 -18
-23 -19 18 0 92 13 165 29 168 37 215 43 222 32 4 -5 -1 -17 -10 -25 -12 -12
-37 -16 -111 -16 -121 0 -116 -11 5 -14 50 -1 96 -7 104 -14 8 -6 59 -13 119
-15 57 -2 -64 -3 -269 -3 -204 1 -372 -2 -372 -6 0 -10 -59 -8 -90 3 -25 9
-25 9 3 5 15 -2 27 1 27 5 0 5 10 9 23 9 22 1 22 1 -3 15 -28 16 -54 20 -30 5
17 -11 16 -11 -43 -15 -57 -4 9 31 178 93 154 57 381 103 625 125 l124 12 9
38 c5 20 13 37 18 37 5 0 9 7 9 15 0 9 10 20 23 25 42 17 91 10 143 -20z
m-3520 -98 c16 -9 15 -10 -6 -17 -12 -4 -59 -5 -104 -4 l-81 4 -3 -27 c-5 -42
-24 -33 -20 9 2 30 8 39 28 45 32 9 164 3 186 -10z m61 -42 l26 -20 -100 0
c-79 0 -103 -3 -113 -15 -11 -13 -15 -13 -21 -3 -5 7 -9 -103 -9 -244 l0 -257
26 -20 c26 -20 37 -21 400 -21 206 0 374 3 374 7 0 4 -8 16 -19 27 -26 30
-141 200 -180 269 -18 31 -37 57 -42 57 -27 0 -59 -57 -58 -102 l1 -33 8 37
c4 21 15 47 25 58 22 24 37 15 65 -39 10 -20 39 -67 64 -104 63 -94 60 -115
-14 -102 -36 6 -40 10 -40 36 0 26 -3 29 -34 29 -52 0 -66 -9 -66 -41 0 -34
-17 -39 -23 -6 -4 18 -5 17 -6 -7 -1 -26 1 -28 25 -22 17 5 23 3 19 -4 -10
-16 -65 -12 -71 5 -4 9 -1 37 6 63 20 77 28 122 19 116 -4 -2 -12 4 -18 14 -7
14 -5 21 10 30 10 7 30 30 44 52 34 54 58 53 93 -6 45 -75 159 -247 185 -279
21 -26 27 -28 41 -16 28 23 28 5 0 -28 l-26 -32 -395 3 -395 3 -19 24 c-18 22
-19 42 -19 296 l0 273 65 7 c35 4 80 5 100 3 19 -2 35 0 35 4 0 13 10 9 37
-12z m606 -17 c-29 -2 -78 -2 -110 0 -32 2 -8 3 52 3 61 0 87 -1 58 -3z m660
-105 c-2 -5 -3 -161 -3 -348 l0 -340 -30 0 -29 0 -3 350 -3 351 35 -3 c19 -2
34 -6 33 -10z m1027 -53 c0 -8 -7 -15 -15 -15 -18 0 -20 -16 -2 -23 6 -3 -6
-6 -28 -6 -55 -1 -225 -28 -305 -47 -94 -23 -229 -97 -288 -158 -71 -71 -126
-174 -147 -271 -25 -121 -22 -115 -61 -115 l-35 0 6 48 c32 235 148 408 335
498 107 52 136 61 262 84 133 24 278 26 278 5z m943 -32 c-7 -2 -21 -2 -30 0
-10 3 -4 5 12 5 17 0 24 -2 18 -5z m-727 -98 c82 -37 166 -75 187 -84 l37 -16
-147 -59 c-82 -33 -178 -74 -215 -93 -37 -18 -70 -33 -73 -33 -7 0 -6 355 1
362 9 10 54 -6 210 -77z m679 70 c-16 -8 -100 -46 -185 -85 -85 -38 -168 -77
-185 -85 l-30 -15 29 4 c35 5 35 5 244 -95 94 -45 161 -83 157 -89 -7 -12
-188 -13 -599 -3 l-287 6 68 30 c147 63 310 130 346 140 33 10 51 27 28 27 -9
0 -59 22 -275 123 l-90 42 90 6 c49 3 231 6 404 7 279 1 312 0 285 -13z m95
-171 c0 -130 -3 -174 -12 -174 -7 0 -48 17 -93 39 -162 78 -251 119 -272 126
-13 3 -23 9 -23 13 1 10 383 180 393 175 4 -2 7 -83 7 -179z m-3080 122 c0 -8
3 -22 7 -31 5 -15 3 -16 -15 -6 -25 13 -30 51 -7 51 8 0 15 -6 15 -14z m2080
-39 c0 -21 -7 -25 -67 -36 -87 -16 -199 -61 -270 -107 -105 -70 -204 -196
-234 -299 -12 -40 -17 -45 -42 -45 -32 0 -32 -2 4 95 74 199 272 355 514 405
76 15 95 13 95 -13z m-1633 -169 c-2 -13 -4 -3 -4 22 0 25 2 35 4 23 2 -13 2
-33 0 -45z m-1723 10 c15 -6 36 -33 51 -62 24 -48 25 -57 25 -248 0 -169 -2
-198 -15 -198 -13 0 -15 27 -15 180 0 211 -10 273 -52 312 -33 31 -32 34 6 16z
m1429 -45 c-7 -2 -19 -2 -25 0 -7 3 -2 5 12 5 14 0 19 -2 13 -5z m-945 -86
c-18 -23 -46 -53 -62 -68 l-29 -26 19 -26 c10 -15 23 -27 28 -27 5 0 52 23
105 52 53 28 90 44 82 34 -15 -18 -11 -23 59 -70 67 -44 175 -138 172 -150 -2
-6 23 18 55 53 l58 64 7 -43 c11 -61 55 -144 99 -188 21 -20 36 -40 33 -44 -9
-14 -59 -9 -160 18 -55 14 -111 28 -126 31 -37 7 -38 44 -1 72 14 12 24 23 22
25 -2 2 -22 15 -44 29 -77 51 -126 88 -166 126 l-41 39 -78 -34 -79 -34 -27
25 c-15 14 -31 25 -36 25 -16 0 14 44 71 105 63 68 89 76 39 12z m3095 -4 c-7
-2 -21 -2 -30 0 -10 3 -4 5 12 5 17 0 24 -2 18 -5z m877 -16 c0 -12 -8 -29
-17 -38 -20 -17 -67 -71 -133 -152 -49 -61 -49 -61 -69 -48 -10 7 -4 21 30 65
24 32 54 71 66 87 24 33 104 108 116 109 4 0 7 -10 7 -23z m-412 6 c-81 -2
-216 -2 -300 0 -84 1 -18 3 147 3 165 0 234 -2 153 -3z m-3428 -7 c0 -3 -4 -8
-10 -11 -5 -3 -10 -1 -10 4 0 6 5 11 10 11 6 0 10 -2 10 -4z m3051 -190 c11
-50 9 -101 -7 -198 -12 -75 -22 -35 -21 86 2 141 -2 151 -75 238 -71 84 -57
84 22 0 58 -61 71 -81 81 -126z m-3355 59 c-11 -8 -23 -15 -27 -15 -10 0 -29
-58 -30 -94 0 -17 -5 -40 -10 -51 -6 -13 -7 5 -3 55 6 81 28 120 68 120 21 -1
21 -1 2 -15z m58 -96 l33 -55 -58 -2 -59 -1 0 53 c0 29 3 56 6 59 17 17 48 -4
78 -54z m1351 21 c-24 -10 -245 -13 -228 -2 6 4 64 8 130 9 74 1 111 -1 98 -7z
m2515 -106 c0 -8 -4 -12 -10 -9 -5 3 -7 0 -4 -8 6 -17 -31 -47 -58 -47 -27 0
-22 18 17 56 36 34 55 37 55 8z m-4024 -52 c-8 -16 -24 -32 -36 -35 -11 -3
-20 -4 -20 -2 0 5 65 70 68 69 2 -1 -3 -15 -12 -32z m-116 -29 c44 -19 56 -39
14 -23 -28 11 -73 40 -61 40 4 0 25 -8 47 -17z m-32 -204 c1 -106 -1 -200 -4
-209 -13 -27 -20 48 -23 234 -2 143 1 177 11 174 10 -4 14 -50 16 -199z m262
197 c0 -2 -7 -7 -16 -10 -8 -3 -12 -2 -9 4 6 10 25 14 25 6z m-140 -16 c-8 -5
-22 -9 -30 -9 -10 0 -8 3 5 9 27 12 43 12 25 0z m66 -5 c-8 -8 -23 -15 -32
-15 -16 0 -16 1 2 15 26 20 51 20 30 0z m84 -10 c-7 -9 -15 -13 -17 -11 -6 6
20 36 26 30 2 -2 -2 -10 -9 -19z m57 19 c-3 -3 -12 -4 -19 -1 -8 3 -5 6 6 6
11 1 17 -2 13 -5z m68 -14 c3 -5 2 -17 -3 -27 -9 -15 -11 -14 -20 4 -15 27 7
49 23 23z m3680 0 c4 -6 0 -22 -9 -35 -9 -13 -16 -31 -16 -40 0 -8 -8 -15 -17
-15 -9 0 -24 -7 -32 -14 -15 -14 -16 -11 -13 25 5 52 68 109 87 79z m-3655
-30 c0 -5 -5 -10 -11 -10 -5 0 -7 5 -4 10 3 6 8 10 11 10 2 0 4 -4 4 -10z
m3491 -105 c30 -30 59 -55 64 -55 6 0 35 -24 64 -54 44 -44 50 -54 35 -60 -15
-6 -54 18 -75 48 -8 11 -93 -37 -127 -71 -12 -12 -33 -23 -45 -23 -19 0 -24
10 -40 73 -18 74 -22 115 -10 104 3 -4 14 7 24 23 11 17 26 30 34 30 21 0 19
28 -2 33 -14 4 -14 5 3 6 14 1 41 -19 75 -54z m-574 -215 c16 -32 3 -41 -60
-38 -42 3 -45 5 -30 16 10 7 32 12 49 10 23 -3 30 0 27 9 -3 7 -9 13 -13 13
-8 0 -110 -24 -155 -37 -44 -12 -4 8 61 32 82 29 104 28 121 -5z m428 -19 c53
-11 5 -12 -55 -2 -34 6 -37 9 -15 9 17 1 48 -3 70 -7z m51 -45 c84 -22 134
-60 134 -103 0 -17 -6 -23 -22 -23 -13 -1 -40 -7 -60 -14 -34 -12 -39 -12 -58
8 -11 12 -20 34 -20 49 0 15 -5 27 -11 27 -6 0 -9 -7 -5 -15 6 -17 -9 -21 -19
-5 -4 6 -158 10 -428 10 -232 0 -432 3 -444 6 -24 7 -38 33 -25 46 20 20 125
26 507 27 307 1 412 -2 451 -13z m-841 -125 c4 -35 -10 -51 -20 -21 -6 20 3
66 11 57 3 -2 6 -18 9 -36z m273 -4 c61 -62 52 -77 -13 -22 -30 26 -55 51 -55
56 0 21 29 6 68 -34z"/>
<path d="M3498 4912 c4 -10 7 -12 10 -4 2 7 9 9 15 5 7 -3 8 -2 4 2 -14 16
-36 14 -29 -3z"/>
<path d="M2246 4571 c-10 -15 28 -41 44 -30 13 8 12 12 -4 24 -23 17 -33 19
-40 6z"/>
<path d="M1646 4481 c-4 -7 -5 -15 -2 -18 9 -9 19 4 14 18 -4 11 -6 11 -12 0z"/>
<path d="M1756 4468 c3 -7 17 -22 32 -32 27 -19 27 -19 -2 12 -32 35 -38 38
-30 20z"/>
<path d="M1875 4340 c10 -11 20 -20 23 -20 3 0 -3 9 -13 20 -10 11 -20 20 -23
20 -3 0 3 -9 13 -20z"/>
<path d="M1930 4282 c6 -13 14 -21 18 -18 3 4 -2 14 -12 24 -18 16 -18 16 -6
-6z"/>
<path d="M1965 4240 c3 -5 8 -10 11 -10 2 0 4 5 4 10 0 6 -5 10 -11 10 -5 0
-7 -4 -4 -10z"/>
<path d="M3721 3011 c-22 -33 -41 -62 -41 -66 0 -6 -57 -96 -120 -190 -15 -22
-35 -56 -45 -75 -10 -19 -24 -40 -32 -45 -8 -6 -20 -28 -27 -50 l-14 -40 215
-3 c119 -1 217 -1 218 0 1 2 -3 64 -8 138 -6 96 -6 135 2 138 6 2 11 9 11 15
0 15 -104 237 -111 237 -3 0 -25 -27 -48 -59z"/>
<path d="M3894 2735 c3 -55 6 -121 6 -147 l0 -48 70 0 c60 0 70 2 70 18 0 22
-56 130 -109 212 l-43 65 6 -100z"/>
<path d="M3215 4110 c-4 -17 -5 -34 -2 -36 3 -3 8 9 12 26 4 17 5 34 2 36 -3
3 -8 -9 -12 -26z"/>
<path d="M3071 4051 c0 -8 -34 -49 -75 -91 -41 -43 -79 -88 -86 -101 -9 -20
-7 -19 15 6 15 17 56 60 92 97 44 46 63 73 60 85 -3 10 -5 12 -6 4z"/>
<path d="M3092 3960 c-28 -21 -57 -48 -65 -60 -8 -11 -33 -40 -56 -65 -22 -24
-41 -47 -41 -51 0 -5 15 8 33 27 17 18 69 69 115 112 89 82 97 103 14 37z"/>
<path d="M940 4110 c-1 -3 -3 -41 -5 -85 l-4 -80 10 70 c8 58 7 115 -1 95z"/>
<path d="M763 3833 c-216 -4 -218 -23 -4 -23 132 0 160 3 165 15 3 8 4 14 3
13 -1 -1 -75 -4 -164 -5z"/>
<path d="M4095 3909 c-137 -3 -20 -4 260 -2 281 2 518 1 527 -2 10 -4 15 -12
11 -19 -3 -6 3 -3 14 7 20 17 20 17 16 -10 -4 -22 -2 -25 6 -13 8 11 11 -18
11 -106 0 -66 3 -236 7 -377 5 -209 9 -255 19 -246 10 8 13 90 11 387 l-1 377
-6 -265 -6 -265 -2 273 -2 272 -307 -2 c-170 -1 -420 -5 -558 -9z"/>
<path d="M4395 3860 l-480 -5 -1 -50 c-5 -196 -5 -578 1 -583 4 -4 113 -10
243 -13 130 -3 238 -6 240 -7 1 -1 2 -9 2 -18 0 -10 -6 -14 -14 -11 -9 4 -17
-2 -21 -14 -4 -11 -5 -22 -3 -23 1 -2 44 -6 94 -10 77 -5 93 -4 104 10 11 12
11 20 2 35 -16 26 -6 44 16 27 12 -10 16 -10 19 0 4 9 44 12 158 12 84 0 160
3 169 6 21 8 20 24 -1 24 -17 0 -18 22 -18 312 0 269 -2 311 -15 312 -8 1
-231 -1 -495 -4z m495 -300 l0 -290 -179 0 -179 0 -12 53 c-16 68 -34 97 -58
90 -19 -5 -43 -55 -52 -108 l-5 -30 -225 0 -225 0 -3 282 -2 283 227 3 c126 1
337 3 471 5 l242 2 0 -290z m-393 -226 c13 -52 17 -125 7 -161 -5 -18 -14 -23
-40 -23 l-34 0 0 86 c0 87 20 159 43 151 6 -2 17 -26 24 -53z m-97 -94 c0 -5
-5 -10 -11 -10 -5 0 -7 5 -4 10 3 6 8 10 11 10 2 0 4 -4 4 -10z m203 3 c-7 -2
-19 -2 -25 0 -7 3 -2 5 12 5 14 0 19 -2 13 -5z m250 0 c-18 -2 -48 -2 -65 0
-18 2 -4 4 32 4 36 0 50 -2 33 -4z"/>
<path d="M3857 3453 c2 -168 4 -308 6 -309 4 -4 210 -6 252 -3 22 2 -23 6
-100 9 l-140 5 -7 298 c-3 165 -8 301 -11 303 -2 3 -2 -134 0 -303z"/>
<path d="M4605 3189 c-4 -6 -5 -11 -4 -13 57 -42 76 -46 210 -44 l134 1 -125
7 c-123 6 -154 13 -180 44 -15 19 -26 20 -35 5z"/>
<path d="M4203 3143 c26 -2 67 -2 90 0 23 2 2 3 -48 3 -49 0 -68 -1 -42 -3z"/>
<path d="M1685 2810 c10 -11 20 -20 23 -20 3 0 -3 9 -13 20 -10 11 -20 20 -23
20 -3 0 3 -9 13 -20z"/>
<path d="M701 2388 c0 -10 -8 -18 -16 -18 -14 0 -42 -40 -28 -40 4 0 1 -5 -7
-10 -9 -6 -10 -10 -3 -10 6 0 15 5 18 10 12 19 25 10 24 -17 l-1 -28 -8 25
c-4 14 -8 19 -9 13 -1 -7 -9 -13 -18 -14 -15 0 -15 -2 2 -9 18 -7 18 -8 3 -15
-15 -6 -15 -9 -3 -21 11 -11 59 -14 239 -14 l225 0 -1 75 c0 41 -5 75 -9 75
-5 0 -9 -4 -9 -9 0 -5 -87 -9 -194 -10 -179 -2 -195 -1 -199 16 -4 17 -5 17
-6 1z m146 -84 c-3 -3 -12 -4 -19 -1 -8 3 -5 6 6 6 11 1 17 -2 13 -5z m-64
-21 c-13 -2 -33 -2 -45 0 -13 2 -3 4 22 4 25 0 35 -2 23 -4z m140 0 c-18 -2
-48 -2 -65 0 -18 2 -4 4 32 4 36 0 50 -2 33 -4z"/>
<path d="M719 2217 c4 -4 43 -7 87 -5 l79 3 -87 5 c-48 3 -83 1 -79 -3z"/>
<path d="M978 2213 c12 -2 32 -2 45 0 12 2 2 4 -23 4 -25 0 -35 -2 -22 -4z"/>
<path d="M646 2194 c-9 -24 -2 -26 12 -4 7 11 8 20 3 20 -5 0 -12 -7 -15 -16z"/>
<path d="M690 2200 c0 -5 7 -10 16 -10 8 0 12 5 9 10 -3 6 -10 10 -16 10 -5 0
-9 -4 -9 -10z"/>
<path d="M800 2189 c0 -7 -23 -10 -67 -7 l-68 3 -3 -32 c-2 -25 1 -33 12 -33
21 0 20 -10 -1 -26 -15 -11 -16 -16 -6 -33 10 -16 9 -22 -3 -32 -13 -11 -12
-14 13 -26 15 -7 21 -11 11 -9 -12 3 -18 -4 -23 -31 -3 -20 -3 -39 2 -43 15
-14 53 -22 53 -11 0 8 65 11 200 11 l200 0 0 25 c0 14 -5 25 -11 25 -8 0 -8 4
1 15 10 12 0 15 -72 18 l-83 3 83 2 c81 2 107 15 56 28 -14 4 -58 5 -98 2 -39
-3 -82 -2 -96 2 -15 5 29 8 103 9 106 1 127 4 127 16 0 12 -17 15 -87 17 l-88
2 85 6 c65 5 74 7 40 10 l-45 3 40 4 c42 4 65 24 65 55 0 17 -12 18 -166 18
-107 0 -163 3 -159 10 3 6 1 10 -4 10 -6 0 -11 -5 -11 -11z m53 -66 c-18 -2
-48 -2 -65 0 -18 2 -4 4 32 4 36 0 50 -2 33 -4z m215 0 c-32 -2 -84 -2 -115 0
-32 2 -6 3 57 3 63 0 89 -1 58 -3z m-280 -20 c-10 -2 -28 -2 -40 0 -13 2 -5 4
17 4 22 1 32 -1 23 -4z m135 -20 c-7 -2 -21 -2 -30 0 -10 3 -4 5 12 5 17 0 24
-2 18 -5z m-170 -30 c-13 -2 -33 -2 -45 0 -13 2 -3 4 22 4 25 0 35 -2 23 -4z
m-20 -20 c-7 -2 -19 -2 -25 0 -7 3 -2 5 12 5 14 0 19 -2 13 -5z m64 1 c-3 -3
-12 -4 -19 -1 -8 3 -5 6 6 6 11 1 17 -2 13 -5z m23 -24 c15 -5 18 -8 8 -9 -9
-1 -23 -4 -31 -7 -8 -3 -17 2 -20 10 -7 17 3 19 43 6z m153 -27 c-13 -2 -35
-2 -50 0 -16 2 -5 4 22 4 28 0 40 -2 28 -4z m-220 -10 c-7 -2 -21 -2 -30 0
-10 3 -4 5 12 5 17 0 24 -2 18 -5z m285 -10 c-10 -2 -26 -2 -35 0 -10 3 -2 5
17 5 19 0 27 -2 18 -5z"/>
<path d="M923 2193 c37 -2 97 -2 135 0 37 2 6 3 -68 3 -74 0 -105 -1 -67 -3z"/>
<path d="M590 1886 c0 -9 7 -16 16 -16 9 0 14 5 12 12 -6 18 -28 21 -28 4z"/>
<path d="M1156 1885 c-4 -10 1 -15 14 -15 11 0 20 7 20 15 0 8 -6 15 -14 15
-8 0 -16 -7 -20 -15z"/>
<path d="M1047 2609 c7 -7 15 -10 18 -7 3 3 -2 9 -12 12 -14 6 -15 5 -6 -5z"/>
<path d="M1026 2581 c-4 -5 -10 -36 -14 -69 l-8 -60 84 -6 c46 -4 87 -4 91 -1
11 12 -45 100 -79 123 -34 23 -65 28 -74 13z m62 -38 c28 -27 49 -64 34 -62
-4 1 -14 1 -22 -1 -11 -1 -9 -4 5 -10 15 -7 9 -9 -25 -7 -45 2 -45 2 -47 40
-2 31 10 64 24 67 1 0 15 -12 31 -27z"/>
<path d="M1046 2524 c-5 -12 -2 -15 11 -10 9 4 20 1 24 -6 4 -7 11 -9 15 -5 4
4 -1 14 -12 22 -25 19 -31 18 -38 -1z"/>
<path d="M1936 2466 c-21 -7 -44 -20 -51 -29 -7 -9 -17 -17 -23 -17 -6 0 -25
-20 -42 -45 -17 -25 -36 -43 -42 -39 -6 4 -6 -2 1 -15 14 -25 14 -25 50 -6 31
15 43 37 35 59 -8 21 44 76 73 76 13 0 33 4 43 10 14 7 23 6 36 -8 16 -15 17
-15 11 0 -4 12 0 18 16 21 12 2 2 4 -23 5 -25 0 -62 -5 -84 -12z m-98 -137
c-31 -20 -38 -8 -16 26 l23 34 3 -26 c2 -14 -2 -30 -10 -34z"/>
<path d="M2214 2397 c31 -31 60 -57 63 -57 13 0 -59 77 -88 94 -26 15 -21 8
25 -37z"/>
<path d="M2134 2415 c3 -8 -5 -25 -19 -39 -34 -34 -32 -61 5 -76 28 -11 33
-10 55 10 25 24 24 43 -7 73 -10 10 -18 24 -18 32 0 8 -5 15 -11 15 -6 0 -9
-7 -5 -15z m43 -61 c3 -9 -3 -24 -14 -36 -17 -16 -24 -18 -42 -9 -24 13 -26
26 -8 46 16 19 56 19 64 -1z"/>
<path d="M2043 2403 c-7 -3 -13 -11 -13 -19 0 -18 8 -18 26 0 15 16 7 26 -13
19z"/>
<path d="M1947 2367 c-9 -7 -17 -21 -19 -32 -2 -15 3 -21 25 -23 37 -4 60 14
47 38 -13 24 -35 31 -53 17z m43 -22 c0 -9 -7 -18 -16 -22 -18 -7 -39 11 -30
26 11 17 46 13 46 -4z"/>
<path d="M2274 2319 c-4 -7 -3 -9 4 -5 6 3 13 -2 15 -11 4 -16 5 -16 6 -1 1
21 -15 32 -25 17z"/>
<path d="M1797 2244 c-22 -12 -28 -21 -25 -42 3 -23 8 -27 40 -30 33 -3 38 0
44 23 5 19 1 32 -12 45 -17 17 -21 17 -47 4z m50 -20 c8 -23 -20 -47 -46 -39
-25 8 -26 18 -5 39 20 20 43 20 51 0z"/>
<path d="M1932 2238 c-7 -7 -12 -19 -12 -27 1 -14 3 -13 14 2 7 9 18 17 25 17
6 0 11 5 11 10 0 14 -23 13 -38 -2z"/>
<path d="M1981 2224 c-11 -13 -10 -15 5 -12 13 2 19 -3 19 -17 0 -15 -8 -21
-34 -23 -20 -2 -37 2 -42 10 -7 10 -9 10 -9 0 0 -18 44 -36 73 -28 30 7 39 28
27 61 -11 29 -19 31 -39 9z"/>
<path d="M2121 2236 c12 -10 60 -16 54 -6 -3 5 -18 10 -32 10 -15 0 -24 -2
-22 -4z"/>
<path d="M2288 2196 c5 -60 -16 -99 -96 -175 -73 -69 -64 -71 15 -4 27 23 59
61 71 85 23 47 33 129 17 134 -6 3 -9 -13 -7 -40z"/>
<path d="M2103 2204 c-7 -19 7 -46 28 -52 9 -2 8 1 -3 11 -10 8 -18 19 -18 26
0 18 38 13 43 -6 4 -17 4 -17 12 1 5 12 3 21 -6 27 -22 14 -49 10 -56 -7z"/>
<path d="M2196 2193 c-4 -17 -15 -34 -24 -36 -15 -4 -15 -5 -1 -6 23 -1 41 24
37 51 -3 20 -5 19 -12 -9z"/>
<path d="M1781 2098 c0 -13 3 -17 6 -10 8 20 61 15 73 -7 16 -31 12 -51 -12
-60 -17 -6 -18 -9 -5 -14 24 -9 40 19 34 59 -4 20 -7 38 -9 39 -2 1 -22 5 -45
9 -40 6 -43 5 -42 -16z"/>
<path d="M2104 2111 c6 -10 66 -33 66 -26 0 5 -56 35 -65 35 -3 0 -4 -4 -1 -9z"/>
<path d="M1937 2103 c-4 -3 -7 -20 -7 -38 0 -28 3 -31 30 -30 27 0 49 17 50
37 0 24 -56 49 -73 31z m51 -35 c-3 -25 -17 -32 -37 -19 -19 12 -6 41 19 41
16 0 21 -5 18 -22z"/>
<path d="M2067 2093 c-4 -21 23 -73 38 -73 6 0 19 6 29 13 16 12 15 14 -10 37
l-27 25 12 -23 c15 -29 7 -40 -15 -22 -9 8 -14 23 -11 37 5 27 -10 32 -16 6z"/>
<path d="M1804 2045 c11 -8 22 -12 25 -9 6 6 -19 24 -34 24 -5 -1 -1 -7 9 -15z"/>
<path d="M2024 1975 c-8 -21 6 -41 17 -24 12 19 11 39 -1 39 -6 0 -13 -7 -16
-15z"/>
<path d="M1971 1959 c-16 -13 -18 -19 -8 -19 15 0 43 27 36 34 -2 3 -15 -4
-28 -15z"/>
<path d="M2759 2185 c-58 -30 -111 -89 -134 -148 -24 -62 -17 -185 12 -242 66
-126 238 -191 359 -136 59 27 121 87 150 144 28 55 34 152 14 227 -15 57 -100
142 -164 163 -74 25 -180 22 -237 -8z"/>
<path d="M3780 1821 c0 -17 5 -31 10 -31 6 0 10 11 10 24 0 14 -4 28 -10 31
-6 4 -10 -7 -10 -24z"/>
<path d="M4692 1863 c-13 -5 -42 -66 -42 -88 0 -7 15 -16 34 -19 l34 -6 8
-122 9 -121 55 44 c30 25 81 62 113 84 32 22 61 43 64 48 5 9 -106 115 -143
135 -13 7 -25 8 -28 3 -3 -5 13 -19 37 -31 39 -20 107 -82 107 -99 0 -4 -34
-31 -76 -61 -43 -30 -85 -61 -96 -69 -10 -8 -20 -12 -22 -10 -4 5 -16 196 -16
267 0 52 -6 58 -38 45z"/>
<path d="M4750 1846 c0 -2 7 -7 16 -10 8 -3 12 -2 9 4 -6 10 -25 14 -25 6z"/>
<path d="M4740 1755 c0 -8 6 -15 13 -15 21 0 60 -38 52 -50 -4 -6 -18 -15 -31
-20 -28 -11 -32 -40 -6 -40 20 0 47 28 56 58 6 16 -2 27 -39 52 -34 23 -45 27
-45 15z"/>
<path d="M4375 1670 c-116 -8 -170 -18 -300 -55 -107 -31 -148 -46 -160 -57
-5 -5 10 -1 35 8 25 9 97 29 160 46 113 29 293 45 528 47 41 1 72 5 72 11 0
11 -158 11 -335 0z"/>
<path d="M3780 1560 c-8 -5 -10 -10 -5 -10 6 0 17 5 25 10 8 5 11 10 5 10 -5
0 -17 -5 -25 -10z"/>
<path d="M3853 1543 c-16 -6 9 -33 31 -33 28 0 28 20 -1 21 -25 0 -26 1 -8 9
21 9 0 12 -22 3z"/>
<path d="M1641 1264 c0 -11 3 -14 6 -6 3 7 2 16 -1 19 -3 4 -6 -2 -5 -13z"/>
<path d="M1230 865 c-8 -9 -8 -15 -2 -15 12 0 26 19 19 26 -2 2 -10 -2 -17
-11z"/>
<path d="M1156 790 c-25 -28 -46 -53 -46 -55 0 -16 24 2 65 50 58 69 44 73
-19 5z"/>
<path d="M1155 730 c-16 -5 -13 -8 15 -13 39 -8 46 -5 22 9 -9 6 -26 8 -37 4z"/>
<path d="M1235 701 c11 -5 40 -11 65 -15 30 -4 36 -3 20 3 -37 12 -109 22 -85
12z"/>
<path d="M4262 450 c-8 -13 -8 -20 -2 -20 6 0 13 7 17 15 9 24 -1 27 -15 5z"/>
<path d="M4170 405 c-21 -25 -1 -31 23 -7 17 18 18 22 5 22 -8 0 -21 -7 -28
-15z"/>
<path d="M4405 370 c10 -11 20 -20 23 -20 3 0 -3 9 -13 20 -10 11 -20 20 -23
20 -3 0 3 -9 13 -20z"/>
<path d="M2551 5099 c6 -12 14 -17 18 -12 3 5 19 9 35 9 16 -1 31 5 33 12 3 8
-10 12 -47 12 -49 0 -50 -1 -39 -21z"/>
<path d="M60 2975 c10 -12 9 -16 -4 -21 -37 -14 16 -101 55 -89 14 5 17 2 13
-8 -3 -8 -1 -18 5 -22 7 -3 11 2 11 14 0 11 -10 25 -21 32 -15 8 -19 8 -15 0
4 -6 2 -11 -3 -11 -6 0 -11 9 -11 19 0 11 -5 23 -10 26 -6 4 -8 15 -5 24 7 22
-3 51 -17 51 -6 0 -5 -6 2 -15z"/>
<path d="M183 2927 c0 -21 4 -33 8 -26 5 8 9 6 12 -7 4 -16 5 -17 6 -1 1 13
10 17 36 17 21 0 35 5 35 13 0 7 8 3 16 -8 11 -14 18 -16 21 -7 6 17 28 15 43
-4 11 -13 10 -18 -6 -35 -20 -19 -60 -17 -48 2 3 5 0 9 -6 9 -27 0 -3 -35 25
-38 17 -2 34 -8 39 -13 6 -5 15 -9 20 -9 6 0 2 7 -8 15 -19 14 -19 15 -1 35
17 19 17 21 0 40 -10 11 -31 20 -46 20 -15 0 -31 5 -35 12 -5 8 -10 7 -18 -5
-7 -8 -27 -17 -46 -19 -29 -3 -35 1 -41 22 -6 20 -7 18 -6 -13z"/>
<path d="M390 2944 c-19 -22 10 -50 37 -36 12 7 25 7 34 1 19 -12 29 -11 29 1
0 6 -7 10 -15 10 -8 0 -15 5 -15 11 0 6 -7 8 -15 5 -8 -3 -22 -9 -32 -13 -13
-5 -15 -2 -11 15 7 26 5 27 -12 6z"/>
<path d="M513 2925 c-16 -17 -5 -25 20 -16 16 6 16 9 5 18 -9 8 -16 7 -25 -2z"/>
<path d="M239 2863 c-13 -16 -12 -17 4 -4 12 10 17 10 17 2 0 -15 29 -45 36
-39 2 3 -2 11 -11 18 -8 7 -15 19 -15 26 0 19 -15 17 -31 -3z"/>
<path d="M460 2865 c0 -12 -4 -14 -18 -6 -13 7 -23 6 -30 -1 -17 -17 -15 -33
3 -18 11 9 18 10 29 1 10 -8 21 -8 40 -1 35 13 39 13 30 -1 -4 -7 -1 -10 6 -7
8 2 16 10 18 18 3 9 -3 11 -22 8 -16 -3 -33 0 -42 9 -12 13 -14 12 -14 -2z"/>
<path d="M190 2861 c0 -10 19 -25 25 -20 1 2 -3 10 -11 17 -8 7 -14 8 -14 3z"/>
<path d="M4978 2724 c-43 -49 -47 -56 -36 -79 14 -31 40 -40 67 -23 29 18 28
72 -1 92 -22 16 -19 20 14 17 9 -1 19 3 23 8 3 7 0 8 -9 5 -9 -3 -16 -1 -16 5
0 6 5 11 10 11 6 0 10 5 10 10 0 19 -15 8 -62 -46z"/>
<path d="M412 2683 c37 -2 100 -2 140 0 40 1 10 3 -67 3 -77 0 -110 -1 -73 -3z"/>
<path d="M4425 2480 c-17 -7 -17 -9 -3 -9 10 -1 20 -12 24 -26 6 -23 11 -25
63 -27 l56 -1 -50 -7 c-35 -5 -10 -7 88 -8 101 -2 137 1 137 10 0 9 3 9 12 0
17 -17 38 -15 38 4 0 14 -9 16 -50 12 -28 -3 -53 -1 -56 4 -4 6 48 7 135 2
103 -5 141 -4 141 5 0 7 27 11 80 11 73 0 80 2 80 20 0 20 -6 20 -337 19 -186
0 -347 -4 -358 -9z"/>
<path d="M4800 2411 c0 -9 309 -3 319 5 2 2 -68 4 -157 4 -91 0 -162 -4 -162
-9z"/>
<path d="M4439 2318 c-11 -10 -16 -18 -10 -18 6 0 11 -6 11 -12 0 -14 73 -14
438 -2 173 6 183 7 180 25 -3 19 -16 20 -300 22 -270 2 -299 0 -319 -15z m344
-25 c-13 -2 -33 -2 -45 0 -13 2 -3 4 22 4 25 0 35 -2 23 -4z"/>
<path d="M4498 2203 c12 -2 32 -2 45 0 12 2 2 4 -23 4 -25 0 -35 -2 -22 -4z"/>
<path d="M4451 2192 c-25 -8 -8 -30 27 -36 20 -3 173 -6 340 -6 295 0 302 0
302 20 0 19 -7 20 -162 22 -234 4 -495 4 -507 0z"/>
<path d="M27 1819 c4 -13 8 -18 11 -10 2 7 -1 18 -6 23 -8 8 -9 4 -5 -13z"/>
<path d="M0 1370 l0 -63 87 6 c50 3 93 1 102 -5 11 -7 27 -6 49 4 l33 13 -118
48 c-169 69 -153 70 -153 -3z"/>
<path d="M300 1000 c0 -5 5 -10 10 -10 6 0 10 5 10 10 0 6 -4 10 -10 10 -5 0
-10 -4 -10 -10z"/>
<path d="M67 993 c-73 -4 -93 -23 -24 -23 88 0 227 13 227 21 0 9 -59 9 -203
2z"/>
<path d="M5007 959 c-55 -13 -129 -53 -170 -93 -36 -35 -73 -94 -64 -103 3 -2
8 5 12 18 12 36 86 109 140 136 35 19 72 28 125 31 54 4 68 8 50 13 -32 9 -47
9 -93 -2z"/>
<path d="M0 860 c0 -6 45 -10 114 -10 66 0 117 4 121 10 4 6 -37 10 -114 10
-74 0 -121 -4 -121 -10z"/>
<path d="M1886 762 l3 -57 -11 53 c-10 49 -28 72 -28 35 0 -22 59 -340 95
-513 14 -69 30 -150 35 -180 20 -106 16 -100 61 -100 l40 0 -6 38 c-7 40 -129
654 -146 731 -7 34 -15 47 -28 48 -15 1 -17 -6 -15 -55z m11 -94 c-3 -7 -5 -2
-5 12 0 14 2 19 5 13 2 -7 2 -19 0 -25z m10 -50 c-3 -8 -6 -5 -6 6 -1 11 2 17
5 13 3 -3 4 -12 1 -19z"/>
<path d="M0 740 c0 -6 47 -10 120 -10 73 0 120 4 120 10 0 6 -47 10 -120 10
-73 0 -120 -4 -120 -10z"/>
<path d="M4761 680 c0 -41 3 -80 7 -87 4 -7 6 20 4 60 -4 102 -10 115 -11 27z"/>
<path d="M4796 547 c3 -10 9 -15 12 -12 3 3 0 11 -7 18 -10 9 -11 8 -5 -6z"/>
<path d="M4844 502 c48 -52 174 -90 246 -74 30 7 22 9 -50 14 -61 4 -99 12
-130 28 -25 13 -47 25 -50 29 -3 3 -14 13 -25 21 -11 8 -7 0 9 -18z"/>
<path d="M2500 511 c-80 -3 -139 -10 -132 -14 9 -6 12 -57 12 -198 0 -184 -1
-189 -21 -189 -11 0 -17 -5 -14 -10 4 -6 121 -10 318 -10 l312 0 -3 202 c-1
112 -4 208 -6 214 -5 12 -212 14 -466 5z m450 -206 l0 -185 -280 0 -280 0 0
185 0 185 280 0 280 0 0 -185z"/>
<path d="M2344 325 c0 -93 2 -133 3 -88 2 45 2 122 0 170 -1 48 -3 12 -3 -82z"/>
<path d="M5062 358 c-6 -29 -16 -87 -22 -128 -6 -41 -13 -83 -15 -92 -3 -10
-8 -27 -11 -38 -4 -14 -1 -20 10 -20 12 0 16 -10 16 -40 l0 -40 40 0 40 0 0
205 0 205 -23 0 c-19 0 -24 -8 -35 -52z"/>
<path d="M2341 134 c0 -11 3 -14 6 -6 3 7 2 16 -1 19 -3 4 -6 -2 -5 -13z"/>
</g>
</svg>
